<svg width="128" height="128" viewBox="0 0 128 128" fill="none" xmlns="http://www.w3.org/2000/svg">
<g clip-path="url(#clip0_31_18)">
<path d="M64 39C59.0555 39 54.222 40.4662 50.1108 43.2133C45.9995 45.9603 42.7952 49.8648 40.903 54.4329C39.0108 59.0011 38.5157 64.0277 39.4804 68.8773C40.445 73.7268 42.826 78.1814 46.3223 81.6777C49.8187 85.174 54.2732 87.555 59.1228 88.5196C63.9723 89.4843 68.9989 88.9892 73.5671 87.097C78.1352 85.2048 82.0397 82.0005 84.7868 77.8893C87.5338 73.778 89 68.9445 89 64C89 57.3696 86.3661 51.0107 81.6777 46.3223C76.9893 41.6339 70.6304 39 64 39ZM64 83C60.2422 83 56.5687 81.8857 53.4442 79.7979C50.3196 77.7102 47.8844 74.7428 46.4463 71.271C45.0082 67.7992 44.632 63.9789 45.3651 60.2933C46.0982 56.6076 47.9078 53.2222 50.565 50.565C53.2222 47.9078 56.6077 46.0982 60.2933 45.3651C63.9789 44.632 67.7992 45.0082 71.271 46.4463C74.7428 47.8844 77.7102 50.3196 79.7979 53.4442C81.8857 56.5687 83 60.2422 83 64C83 69.0391 80.9982 73.8718 77.435 77.435C73.8718 80.9982 69.0391 83 64 83Z" fill="#212437"/>
<path d="M121 48H112.07C111.862 47.9985 111.66 47.9321 111.491 47.8103C111.323 47.6884 111.197 47.517 111.13 47.32C110.549 45.6694 109.881 44.0505 109.13 42.47C109.036 42.2835 109.003 42.0723 109.035 41.8661C109.068 41.6599 109.164 41.4689 109.31 41.32L115.62 35C116.27 34.35 116.786 33.5783 117.138 32.729C117.489 31.8796 117.671 30.9693 117.671 30.05C117.671 29.1307 117.489 28.2204 117.138 27.3711C116.786 26.5217 116.27 25.75 115.62 25.1L102.89 12.38C102.24 11.7299 101.468 11.2142 100.619 10.8624C99.7696 10.5106 98.8593 10.3295 97.94 10.3295C97.0207 10.3295 96.1104 10.5106 95.261 10.8624C94.4117 11.2142 93.64 11.7299 92.99 12.38L86.68 18.69C86.5311 18.8363 86.3401 18.9323 86.1339 18.9646C85.9277 18.9968 85.7165 18.9638 85.53 18.87C83.9496 18.1185 82.3307 17.4509 80.68 16.87C80.483 16.8035 80.3116 16.6772 80.1898 16.5087C80.0679 16.3402 80.0015 16.1379 80 15.93V7C80 5.14348 79.2625 3.36301 77.9497 2.05025C76.637 0.737498 74.8565 0 73 0H55C53.1435 0 51.363 0.737498 50.0503 2.05025C48.7375 3.36301 48 5.14348 48 7V15.93C47.9985 16.1379 47.9321 16.3402 47.8103 16.5087C47.6884 16.6772 47.517 16.8035 47.32 16.87C45.6694 17.4512 44.0505 18.1188 42.47 18.87C42.2835 18.9638 42.0723 18.9968 41.8661 18.9646C41.6599 18.9323 41.4689 18.8363 41.32 18.69L35 12.38C34.35 11.7299 33.5783 11.2142 32.729 10.8624C31.8796 10.5106 30.9693 10.3295 30.05 10.3295C29.1307 10.3295 28.2204 10.5106 27.3711 10.8624C26.5217 11.2142 25.75 11.7299 25.1 12.38L12.38 25.11C11.7299 25.76 11.2142 26.5317 10.8624 27.3811C10.5106 28.2304 10.3295 29.1407 10.3295 30.06C10.3295 30.9793 10.5106 31.8896 10.8624 32.7389C11.2142 33.5883 11.7299 34.36 12.38 35.01L18.69 41.32C18.8363 41.4689 18.9323 41.6599 18.9646 41.8661C18.9968 42.0723 18.9638 42.2835 18.87 42.47C18.1185 44.0504 17.4509 45.6693 16.87 47.32C16.8035 47.517 16.6772 47.6884 16.5087 47.8103C16.3402 47.9321 16.1379 47.9985 15.93 48H7C5.14348 48 3.36301 48.7375 2.05025 50.0503C0.737498 51.363 0 53.1435 0 55L0 73C0 74.8565 0.737498 76.637 2.05025 77.9497C3.36301 79.2625 5.14348 80 7 80H15.93C16.1379 80.0015 16.3402 80.0679 16.5087 80.1898C16.6772 80.3116 16.8035 80.483 16.87 80.68C17.4512 82.3306 18.1188 83.9495 18.87 85.53C18.9638 85.7165 18.9968 85.9277 18.9646 86.1339C18.9323 86.3401 18.8363 86.5311 18.69 86.68L12.38 93C11.7299 93.65 11.2142 94.4217 10.8624 95.271C10.5106 96.1204 10.3295 97.0307 10.3295 97.95C10.3295 98.8693 10.5106 99.7796 10.8624 100.629C11.2142 101.478 11.7299 102.25 12.38 102.9L25.11 115.63C25.76 116.28 26.5317 116.796 27.3811 117.148C28.2304 117.499 29.1407 117.681 30.06 117.681C30.9793 117.681 31.8896 117.499 32.7389 117.148C33.5883 116.796 34.36 116.28 35.01 115.63L41.32 109.32C41.4689 109.174 41.6599 109.078 41.8661 109.045C42.0723 109.013 42.2835 109.046 42.47 109.14C44.0504 109.891 45.6693 110.559 47.32 111.14C47.517 111.207 47.6884 111.333 47.8103 111.501C47.9321 111.67 47.9985 111.872 48 112.08V121C48 122.857 48.7375 124.637 50.0503 125.95C51.363 127.262 53.1435 128 55 128H73C74.8565 128 76.637 127.262 77.9497 125.95C79.2625 124.637 80 122.857 80 121V112.07C80.0015 111.862 80.0679 111.66 80.1898 111.491C80.3116 111.323 80.483 111.197 80.68 111.13C82.3306 110.549 83.9495 109.881 85.53 109.13C85.7165 109.036 85.9277 109.003 86.1339 109.035C86.3401 109.068 86.5311 109.164 86.68 109.31L93 115.62C93.65 116.27 94.4217 116.786 95.271 117.138C96.1204 117.489 97.0307 117.671 97.95 117.671C98.8693 117.671 99.7796 117.489 100.629 117.138C101.478 116.786 102.25 116.27 102.9 115.62L115.63 102.89C116.28 102.24 116.796 101.468 117.148 100.619C117.499 99.7696 117.681 98.8593 117.681 97.94C117.681 97.0207 117.499 96.1104 117.148 95.261C116.796 94.4117 116.28 93.64 115.63 92.99L109.32 86.68C109.174 86.5311 109.078 86.3401 109.045 86.1339C109.013 85.9277 109.046 85.7165 109.14 85.53C109.891 83.9496 110.559 82.3307 111.14 80.68C111.207 80.483 111.333 80.3116 111.501 80.1898C111.67 80.0679 111.872 80.0015 112.08 80H121C122.857 80 124.637 79.2625 125.95 77.9497C127.262 76.637 128 74.8565 128 73V55C128 53.1435 127.262 51.363 125.95 50.0503C124.637 48.7375 122.857 48 121 48ZM122 73C122 73.2652 121.895 73.5196 121.707 73.7071C121.52 73.8946 121.265 74 121 74H112.07C110.62 74.0016 109.205 74.4538 108.023 75.2939C106.841 76.1341 105.949 77.3208 105.47 78.69C104.958 80.1398 104.371 81.5618 103.71 82.95C103.076 84.2585 102.866 85.7319 103.108 87.1655C103.35 88.5991 104.032 89.9218 105.06 90.95L111.37 97.26C111.556 97.4474 111.661 97.7008 111.661 97.965C111.661 98.2292 111.556 98.4826 111.37 98.67L98.65 111.38C98.4626 111.566 98.2092 111.671 97.945 111.671C97.6808 111.671 97.4274 111.566 97.24 111.38L90.93 105.07C89.9018 104.042 88.5791 103.36 87.1455 103.118C85.7119 102.876 84.2385 103.086 82.93 103.72C81.5385 104.381 80.1132 104.969 78.66 105.48C77.2927 105.96 76.1081 106.853 75.2699 108.035C74.4316 109.218 73.9809 110.631 73.98 112.08V121C73.98 121.265 73.8746 121.52 73.6871 121.707C73.4996 121.895 73.2452 122 72.98 122H55C54.7348 122 54.4804 121.895 54.2929 121.707C54.1054 121.52 54 121.265 54 121V112.07C53.9984 110.62 53.5462 109.205 52.7061 108.023C51.8659 106.841 50.6792 105.949 49.31 105.47C47.8602 104.958 46.4382 104.371 45.05 103.71C43.7415 103.076 42.2681 102.866 40.8345 103.108C39.4009 103.35 38.0782 104.032 37.05 105.06L30.74 111.37C30.5526 111.556 30.2992 111.661 30.035 111.661C29.7708 111.661 29.5174 111.556 29.33 111.37L16.62 98.65C16.4337 98.4626 16.3292 98.2092 16.3292 97.945C16.3292 97.6808 16.4337 97.4274 16.62 97.24L22.93 90.93C23.9579 89.9018 24.6403 88.5791 24.8822 87.1455C25.1241 85.7119 24.9136 84.2385 24.28 82.93C23.6188 81.5385 23.0313 80.1132 22.52 78.66C22.0369 77.298 21.1442 76.1189 19.9642 75.2846C18.7843 74.4502 17.3751 74.0015 15.93 74H7C6.73478 74 6.48043 73.8946 6.29289 73.7071C6.10536 73.5196 6 73.2652 6 73V55C6 54.7348 6.10536 54.4804 6.29289 54.2929C6.48043 54.1054 6.73478 54 7 54H15.93C17.3804 53.9984 18.7946 53.5462 19.9769 52.7061C21.1592 51.8659 22.0514 50.6792 22.53 49.31C23.0417 47.8602 23.6291 46.4382 24.29 45.05C24.9236 43.7415 25.1341 42.2681 24.8922 40.8345C24.6503 39.4009 23.9679 38.0782 22.94 37.05L16.63 30.74C16.4437 30.5526 16.3392 30.2992 16.3392 30.035C16.3392 29.7708 16.4437 29.5174 16.63 29.33L29.35 16.62C29.5374 16.4337 29.7908 16.3292 30.055 16.3292C30.3192 16.3292 30.5726 16.4337 30.76 16.62L37.07 22.93C38.0982 23.9579 39.4209 24.6403 40.8545 24.8822C42.2881 25.1241 43.7615 24.9136 45.07 24.28C46.4615 23.6188 47.8868 23.0313 49.34 22.52C50.702 22.0369 51.8811 21.1442 52.7154 19.9642C53.5498 18.7843 53.9985 17.3751 54 15.93V7C54 6.73478 54.1054 6.48043 54.2929 6.29289C54.4804 6.10536 54.7348 6 55 6H73C73.2652 6 73.5196 6.10536 73.7071 6.29289C73.8946 6.48043 74 6.73478 74 7V15.93C74.0016 17.3804 74.4538 18.7946 75.2939 19.9769C76.1341 21.1592 77.3208 22.0514 78.69 22.53C80.1398 23.0417 81.5618 23.6291 82.95 24.29C84.2585 24.9236 85.7319 25.1341 87.1655 24.8922C88.5991 24.6503 89.9218 23.9679 90.95 22.94L97.26 16.63C97.4474 16.4437 97.7008 16.3392 97.965 16.3392C98.2292 16.3392 98.4826 16.4437 98.67 16.63L111.4 29.36C111.586 29.5474 111.691 29.8008 111.691 30.065C111.691 30.3292 111.586 30.5826 111.4 30.77L105.09 37.08C104.062 38.1082 103.38 39.4309 103.138 40.8645C102.896 42.2981 103.106 43.7715 103.74 45.08C104.401 46.4715 104.989 47.8968 105.5 49.35C105.98 50.7173 106.873 51.9019 108.055 52.7401C109.238 53.5784 110.651 54.0291 112.1 54.03H121C121.265 54.03 121.52 54.1354 121.707 54.3229C121.895 54.5104 122 54.7648 122 55.03V73Z" fill="#212437"/>
</g>
<defs>
<clipPath id="clip0_31_18">
<rect width="128" height="128" fill="white"/>
</clipPath>
</defs>
</svg>
