<svg width="28" height="28" viewBox="0 0 28 28" fill="none" xmlns="http://www.w3.org/2000/svg">
<path d="M2 0C0.900642 0 0 0.9007 0 2V26C0 27.0994 0.900642 28 2 28H26C27.0994 28 28 27.0994 28 26V2C28 0.9007 27.0994 0 26 0H2ZM2 1H26C26.5627 1 27 1.4374 27 2V4H1V2C1 1.4374 1.43734 1 2 1ZM2.5 2C2.36739 2 2.24021 2.05268 2.14645 2.14645C2.05268 2.24021 2 2.36739 2 2.5C2 2.63261 2.05268 2.75979 2.14645 2.85355C2.24021 2.94732 2.36739 3 2.5 3C2.63261 3 2.75979 2.94732 2.85355 2.85355C2.94732 2.75979 3 2.63261 3 2.5C3 2.36739 2.94732 2.24021 2.85355 2.14645C2.75979 2.05268 2.63261 2 2.5 2ZM4.5 2C4.36739 2 4.24021 2.05268 4.14645 2.14645C4.05268 2.24021 4 2.36739 4 2.5C4 2.63261 4.05268 2.75979 4.14645 2.85355C4.24021 2.94732 4.36739 3 4.5 3C4.63261 3 4.75979 2.94732 4.85355 2.85355C4.94732 2.75979 5 2.63261 5 2.5C5 2.36739 4.94732 2.24021 4.85355 2.14645C4.75979 2.05268 4.63261 2 4.5 2ZM6.5 2C6.36739 2 6.24021 2.05268 6.14645 2.14645C6.05268 2.24021 6 2.36739 6 2.5C6 2.63261 6.05268 2.75979 6.14645 2.85355C6.24021 2.94732 6.36739 3 6.5 3C6.63261 3 6.75979 2.94732 6.85355 2.85355C6.94732 2.75979 7 2.63261 7 2.5C7 2.36739 6.94732 2.24021 6.85355 2.14645C6.75979 2.05268 6.63261 2 6.5 2ZM1 5H27V16H1V5ZM1 17H13.5V27H2C1.43734 27 1 26.5627 1 26V17ZM14.5 17H27V26C27 26.5627 26.5627 27 26 27H14.5V17ZM2.44922 20C2.31661 20.0067 2.19211 20.0659 2.1031 20.1644C2.0141 20.2629 1.96788 20.3928 1.97461 20.5254C1.98134 20.658 2.04048 20.7825 2.13901 20.8715C2.23754 20.9605 2.36739 21.0067 2.5 21H4.875H8.5C8.56626 21.0009 8.63204 20.9887 8.69352 20.964C8.75501 20.9393 8.81097 20.9026 8.85815 20.8561C8.90534 20.8096 8.9428 20.7541 8.96838 20.693C8.99395 20.6319 9.00712 20.5663 9.00712 20.5C9.00712 20.4337 8.99395 20.3681 8.96838 20.307C8.9428 20.2459 8.90534 20.1904 8.85815 20.1439C8.81097 20.0974 8.75501 20.0607 8.69352 20.036C8.63204 20.0113 8.56626 19.9991 8.5 20H4.875H2.5C2.48308 19.9991 2.46613 19.9991 2.44922 20ZM10.4492 20C10.3166 20.0067 10.1921 20.0659 10.1031 20.1644C10.0141 20.2629 9.96788 20.3928 9.97461 20.5254C9.98134 20.658 10.0405 20.7825 10.139 20.8715C10.2375 20.9605 10.3674 21.0067 10.5 21H11.5C11.5663 21.0009 11.632 20.9887 11.6935 20.964C11.755 20.9393 11.811 20.9026 11.8582 20.8561C11.9053 20.8096 11.9428 20.7541 11.9684 20.693C11.994 20.6319 12.0071 20.5663 12.0071 20.5C12.0071 20.4337 11.994 20.3681 11.9684 20.307C11.9428 20.2459 11.9053 20.1904 11.8582 20.1439C11.811 20.0974 11.755 20.0607 11.6935 20.036C11.632 20.0113 11.5663 19.9991 11.5 20H10.5C10.4831 19.9991 10.4661 19.9991 10.4492 20ZM2.44922 23C2.31661 23.0067 2.19211 23.0659 2.1031 23.1644C2.0141 23.2629 1.96788 23.3928 1.97461 23.5254C1.98134 23.658 2.04048 23.7825 2.13901 23.8715C2.23754 23.9605 2.36739 24.0067 2.5 24H4.875H8.5C8.56626 24.0009 8.63204 23.9887 8.69352 23.964C8.75501 23.9393 8.81097 23.9026 8.85815 23.8561C8.90534 23.8096 8.9428 23.7541 8.96838 23.693C8.99395 23.6319 9.00712 23.5663 9.00712 23.5C9.00712 23.4337 8.99395 23.3681 8.96838 23.307C8.9428 23.2459 8.90534 23.1904 8.85815 23.1439C8.81097 23.0974 8.75501 23.0607 8.69352 23.036C8.63204 23.0113 8.56626 22.9991 8.5 23H4.875H2.5C2.48308 22.9991 2.46613 22.9991 2.44922 23ZM10.4492 23C10.3166 23.0067 10.1921 23.0659 10.1031 23.1644C10.0141 23.2629 9.96788 23.3928 9.97461 23.5254C9.98134 23.658 10.0405 23.7825 10.139 23.8715C10.2375 23.9605 10.3674 24.0067 10.5 24H11.5C11.5663 24.0009 11.632 23.9887 11.6935 23.964C11.755 23.9393 11.811 23.9026 11.8582 23.8561C11.9053 23.8096 11.9428 23.7541 11.9684 23.693C11.994 23.6319 12.0071 23.5663 12.0071 23.5C12.0071 23.4337 11.994 23.3681 11.9684 23.307C11.9428 23.2459 11.9053 23.1904 11.8582 23.1439C11.811 23.0974 11.755 23.0607 11.6935 23.036C11.632 23.0113 11.5663 22.9991 11.5 23H10.5C10.4831 22.9991 10.4661 22.9991 10.4492 23Z" fill="#212437"/>
</svg>
