<svg width="62" height="46" viewBox="0 0 62 46" fill="none" xmlns="http://www.w3.org/2000/svg">
<path d="M58.3999 23.57H54.3399C54.2066 23.571 54.0755 23.5365 53.9599 23.47C52.5423 22.5532 51.5406 21.1171 51.1699 19.47C50.7099 17.38 51.3599 15.08 53.0799 12.64C54.6699 10.57 55.2399 9.01999 54.8699 7.88999C54.8294 7.74342 54.8343 7.58797 54.8841 7.44427C54.9339 7.30056 55.0262 7.17539 55.1488 7.08536C55.2713 6.99532 55.4184 6.94468 55.5704 6.94015C55.7224 6.93562 55.8722 6.97742 55.9999 7.05999C56.2099 7.19999 60.9999 10.54 61.6799 15.53C61.8273 16.9438 61.6639 18.3726 61.2009 19.7166C60.738 21.0605 59.9868 22.2869 58.9999 23.31C58.927 23.397 58.8348 23.4658 58.7307 23.5109C58.6265 23.5561 58.5133 23.5763 58.3999 23.57ZM54.5699 22.07H58.0499C58.8331 21.2256 59.4287 20.2251 59.7976 19.1341C60.1664 18.0431 60.3001 16.8864 60.1899 15.74C59.8199 12.9 57.7899 10.6 56.4199 9.33999C56.0615 10.8952 55.3305 12.3399 54.2899 13.55C52.8399 15.62 52.2899 17.55 52.6299 19.19C52.9059 20.3535 53.5954 21.377 54.5699 22.07Z" fill="#212437"/>
<path d="M56.4 45.4299C55.6697 45.43 54.9692 45.1405 54.4519 44.6251C53.9346 44.1097 53.6427 43.4102 53.64 42.6799V22.8299C53.64 22.6301 53.7187 22.4383 53.8591 22.2961C53.9994 22.1538 54.1902 22.0726 54.39 22.0699C54.5881 22.0725 54.7774 22.1524 54.9175 22.2925C55.0576 22.4326 55.1374 22.6218 55.14 22.8199V42.6799C55.1452 43.0116 55.28 43.328 55.5154 43.5616C55.7509 43.7952 56.0684 43.9274 56.4 43.9299C56.565 43.93 56.7284 43.8973 56.8807 43.8338C57.033 43.7704 57.1712 43.6774 57.2875 43.5603C57.4037 43.4432 57.4955 43.3042 57.5578 43.1514C57.62 42.9986 57.6513 42.8349 57.65 42.6699V22.8199C57.65 22.621 57.729 22.4303 57.8697 22.2896C58.0103 22.149 58.2011 22.0699 58.4 22.0699C58.5989 22.0699 58.7897 22.149 58.9303 22.2896C59.071 22.4303 59.15 22.621 59.15 22.8199V42.6699C59.15 43.4002 58.8606 44.1007 58.3452 44.618C57.8297 45.1353 57.1303 45.4273 56.4 45.4299Z" fill="#212437"/>
<path d="M52.43 45.43H4.86C3.63816 45.4273 2.46713 44.9408 1.60316 44.0768C0.739185 43.2129 0.252642 42.0418 0.25 40.82V5.17999C0.252642 3.95815 0.739185 2.78711 1.60316 1.92314C2.46713 1.05917 3.63816 0.572629 4.86 0.569987H52.48C53.0286 0.564982 53.5721 0.675473 54.0751 0.894276C54.5782 1.11308 55.0296 1.4353 55.4 1.83999C55.7865 2.27852 56.0755 2.7941 56.2478 3.35263C56.4202 3.91116 56.4721 4.49992 56.4 5.07999C56.3913 5.17826 56.363 5.27381 56.3168 5.361C56.2707 5.44818 56.2075 5.52526 56.1311 5.58768C56.0547 5.65011 55.9666 5.69663 55.8719 5.7245C55.7773 5.75237 55.678 5.76104 55.58 5.74999C55.3825 5.72978 55.2012 5.63213 55.0756 5.47843C54.95 5.32472 54.8904 5.12751 54.91 4.92999C54.9666 4.56125 54.9433 4.18465 54.8415 3.82575C54.7397 3.46685 54.5618 3.13407 54.32 2.84999C54.0899 2.60027 53.8098 2.40176 53.498 2.26738C53.1862 2.13299 52.8495 2.06574 52.51 2.06999H4.86C4.03518 2.06999 3.24414 2.39765 2.6609 2.98089C2.07766 3.56412 1.75 4.35516 1.75 5.17999V40.82C1.75 41.6448 2.07766 42.4359 2.6609 43.0191C3.24414 43.6023 4.03518 43.93 4.86 43.93H52.43C52.6289 43.93 52.8197 44.009 52.9603 44.1497C53.101 44.2903 53.18 44.4811 53.18 44.68C53.18 44.8789 53.101 45.0697 52.9603 45.2103C52.8197 45.351 52.6289 45.43 52.43 45.43Z" fill="#212437"/>
<path d="M1.00001 39.59C0.820855 39.588 0.647826 39.5245 0.510014 39.41C0.373526 39.2838 0.289519 39.1109 0.274697 38.9256C0.259874 38.7403 0.315321 38.5562 0.430014 38.41L8.23001 29.21C8.81282 28.5207 9.53199 27.9596 10.3423 27.5619C11.1525 27.1642 12.0363 26.9385 12.9381 26.899C13.8398 26.8596 14.74 27.0072 15.5819 27.3327C16.4238 27.6581 17.1892 28.1543 17.83 28.79L24.49 35.36L34.63 22.8C35.1735 22.1289 35.8568 21.5845 36.6323 21.2045C37.4077 20.8246 38.2567 20.6183 39.12 20.6H39.27C40.1105 20.6031 40.9409 20.7827 41.7075 21.1273C42.4741 21.4718 43.1597 21.9735 43.72 22.6L52.63 32.6C52.7626 32.7485 52.8308 32.9436 52.8195 33.1424C52.8083 33.3412 52.7185 33.5274 52.57 33.66C52.4215 33.7926 52.2264 33.8608 52.0276 33.8495C51.8288 33.8383 51.6426 33.7485 51.51 33.6L42.6 23.6C42.1713 23.1142 41.6408 22.7288 41.0462 22.4713C40.4517 22.2137 39.8077 22.0904 39.16 22.11C38.5123 22.1243 37.8754 22.2793 37.2935 22.5642C36.7116 22.8492 36.1986 23.2571 35.79 23.76L25.13 36.9C25.0636 36.9799 24.9813 37.0452 24.8884 37.0917C24.7954 37.1382 24.6938 37.1648 24.59 37.17C24.4852 37.1869 24.378 37.1804 24.276 37.151C24.174 37.1216 24.0797 37.0701 24 37L16.78 29.8C16.285 29.3115 15.6945 28.9306 15.0454 28.681C14.3963 28.4314 13.7027 28.3186 13.008 28.3496C12.3133 28.3805 11.6324 28.5547 11.0081 28.861C10.3838 29.1674 9.82956 29.5994 9.38001 30.13L1.57001 39.33C1.49894 39.4113 1.41134 39.4766 1.31305 39.5214C1.21476 39.5663 1.10804 39.5896 1.00001 39.59Z" fill="#212437"/>
<path d="M15.14 16C14.174 16.0039 13.2285 15.7211 12.4234 15.1873C11.6182 14.6535 10.9897 13.8927 10.6172 13.0013C10.2448 12.11 10.1453 11.1282 10.3313 10.1802C10.5174 9.23229 10.9806 8.36089 11.6622 7.6764C12.3439 6.99192 13.2134 6.52516 14.1606 6.33523C15.1077 6.14531 16.09 6.24078 16.9828 6.60954C17.8757 6.9783 18.639 7.60376 19.1762 8.4067C19.7133 9.20964 20 10.1539 20 11.12C19.9974 12.4099 19.4851 13.6467 18.5748 14.5607C17.6646 15.4747 16.43 15.992 15.14 16ZM15.14 7.73995C14.4715 7.73995 13.818 7.93819 13.2622 8.30959C12.7063 8.68098 12.2731 9.20887 12.0173 9.82648C11.7615 10.4441 11.6945 11.1237 11.8249 11.7794C11.9554 12.435 12.2773 13.0373 12.75 13.51C13.2227 13.9827 13.8249 14.3046 14.4806 14.435C15.1362 14.5654 15.8158 14.4985 16.4335 14.2427C17.0511 13.9868 17.579 13.5536 17.9504 12.9978C18.3218 12.4419 18.52 11.7885 18.52 11.12C18.5174 10.2243 18.1604 9.36615 17.5271 8.73284C16.8938 8.09954 16.0356 7.74259 15.14 7.73995Z" fill="#212437"/>
<path d="M46.44 14.65H36.64C35.6997 14.5514 34.8286 14.1102 34.1926 13.4105C33.5567 12.7109 33.2005 11.8017 33.1918 10.8563C33.1832 9.91081 33.5227 8.99525 34.1457 8.28407C34.7687 7.5729 35.6317 7.11584 36.57 7.00002C36.8161 5.9506 37.4111 5.01578 38.2576 4.34851C39.1042 3.68124 40.1521 3.32104 41.23 3.32685C42.3078 3.33266 43.3518 3.70413 44.1911 4.38048C45.0304 5.05683 45.6153 5.99801 45.85 7.05002C46.0451 7.01807 46.2424 7.00135 46.44 7.00002C47.4259 7.05031 48.3547 7.47735 49.0347 8.19291C49.7147 8.90848 50.0939 9.85789 50.0939 10.845C50.0939 11.8321 49.7147 12.7816 49.0347 13.4971C48.3547 14.2127 47.4259 14.6397 46.44 14.69V14.65ZM36.64 8.46002C36.0446 8.49892 35.4862 8.76291 35.0782 9.1984C34.6703 9.63389 34.4432 10.2083 34.4432 10.805C34.4432 11.4018 34.6703 11.9761 35.0782 12.4116C35.4862 12.8471 36.0446 13.1111 36.64 13.15H46.44C47.0355 13.1111 47.5939 12.8471 48.0018 12.4116C48.4098 11.9761 48.6368 11.4018 48.6368 10.805C48.6368 10.2083 48.4098 9.63389 48.0018 9.1984C47.5939 8.76291 47.0355 8.49892 46.44 8.46002C46.1226 8.45983 45.8088 8.52805 45.52 8.66002C45.4081 8.7094 45.2858 8.73066 45.1638 8.72194C45.0418 8.71323 44.9238 8.6748 44.82 8.61002C44.7124 8.54565 44.6229 8.45498 44.5599 8.34653C44.497 8.23808 44.4626 8.1154 44.46 7.99002C44.3758 7.20492 44.0095 6.47708 43.4291 5.94169C42.8487 5.4063 42.0937 5.09975 41.3044 5.07898C40.5151 5.05821 39.745 5.32463 39.1373 5.82875C38.5296 6.33288 38.1255 7.04044 38 7.82002C37.9924 7.92537 37.9627 8.02794 37.9127 8.121C37.8627 8.21405 37.7937 8.29551 37.71 8.36002C37.625 8.42359 37.5281 8.46959 37.4251 8.49534C37.3221 8.5211 37.215 8.52609 37.11 8.51002C36.956 8.47416 36.7982 8.45737 36.64 8.46002Z" fill="#212437"/>
<path d="M29.72 30.8H25.72C24.7095 30.8107 23.7362 30.4194 23.0142 29.7124C22.2922 29.0054 21.8806 28.0405 21.87 27.03C21.8594 26.0196 22.2506 25.0463 22.9576 24.3243C23.6646 23.6022 24.6295 23.1907 25.64 23.18C25.8848 22.1485 26.4697 21.2295 27.3006 20.571C28.1314 19.9125 29.1598 19.5528 30.22 19.55C31.4921 19.6059 32.6951 20.145 33.5833 21.0575C34.4716 21.9699 34.9783 23.1868 35 24.46C35.0027 24.6582 34.9279 24.8497 34.7916 24.9935C34.6552 25.1374 34.468 25.2222 34.27 25.23C34.0745 25.2301 33.8867 25.1539 33.7466 25.0175C33.6065 24.8811 33.5252 24.6955 33.52 24.5C33.5076 23.6245 33.1684 22.7851 32.5689 22.1468C31.9694 21.5085 31.153 21.1173 30.28 21.05C29.4662 21.0532 28.6838 21.3643 28.0901 21.9209C27.4965 22.4775 27.1356 23.2382 27.08 24.05C27.0713 24.1566 27.0412 24.2602 26.9913 24.3548C26.9415 24.4493 26.873 24.5328 26.79 24.6C26.7053 24.664 26.6081 24.7095 26.5048 24.7336C26.4014 24.7577 26.2942 24.7599 26.19 24.7401C26.0537 24.7248 25.9162 24.7248 25.78 24.7401C25.4632 24.7192 25.1454 24.7636 24.8465 24.8705C24.5475 24.9775 24.2737 25.1446 24.042 25.3616C23.8102 25.5786 23.6255 25.8409 23.4992 26.1322C23.3729 26.4234 23.3077 26.7376 23.3077 27.055C23.3077 27.3725 23.3729 27.6867 23.4992 27.9779C23.6255 28.2692 23.8102 28.5315 24.042 28.7485C24.2737 28.9655 24.5475 29.1326 24.8465 29.2396C25.1454 29.3465 25.4632 29.3909 25.78 29.37H29.78C29.9789 29.37 30.1696 29.4491 30.3103 29.5897C30.4509 29.7304 30.53 29.9211 30.53 30.12C30.53 30.319 30.4509 30.5097 30.3103 30.6504C30.1696 30.791 29.9789 30.87 29.78 30.87L29.72 30.8Z" fill="#212437"/>
<path d="M58.4 26.3H54.4C54.2011 26.3 54.0103 26.221 53.8697 26.0804C53.729 25.9397 53.65 25.749 53.65 25.55C53.65 25.3511 53.729 25.1604 53.8697 25.0197C54.0103 24.8791 54.2011 24.8 54.4 24.8H58.4C58.5989 24.8 58.7897 24.8791 58.9304 25.0197C59.071 25.1604 59.15 25.3511 59.15 25.55C59.15 25.749 59.071 25.9397 58.9304 26.0804C58.7897 26.221 58.5989 26.3 58.4 26.3Z" fill="#212437"/>
</svg>
