<?xml version="1.0" ?><svg id="Layer_1" style="enable-background:new 0 0 512 512;" version="1.1" viewBox="0 0 512 512" xml:space="preserve" xmlns="http://www.w3.org/2000/svg" xmlns:xlink="http://www.w3.org/1999/xlink"><g id="XMLID_1322_"><rect height="19.1" id="XMLID_491_" width="227.1" x="120.3" y="158.6"/><rect height="19.1" id="XMLID_490_" width="227.1" x="120.3" y="189.6"/><rect height="19.1" id="XMLID_489_" width="227.1" x="120.3" y="220.7"/><rect height="19.1" id="XMLID_488_" width="227.1" x="120.3" y="251.7"/><rect height="19.1" id="XMLID_487_" width="176.5" x="120.3" y="282.7"/><path d="M456.1,75.1L397.6,7.3c-1.8-1.8-4.9-1.8-6.7,0l-58.5,67.8c-2.6,2.6-0.6,6.7,3.3,6.7h27.4V135h62.1V81.8   h27.4C456.7,81.8,458.7,77.7,456.1,75.1z" id="XMLID_486_"/><rect height="24.2" id="XMLID_485_" width="62.1" x="363.2" y="144.6"/><path d="M363.2,187.3c0,2.2,2,4,4.5,4h53.1c2.5,0,4.5-1.8,4.5-4v-8.9h-62.1V187.3z" id="XMLID_484_"/><path d="M386.7,464.2c0,15.8-12.8,28.6-28.6,28.6H109.5c-15.8,0-28.6-12.8-28.6-28.6v-8.8H67.7V469   c0,20.5,16.6,37,37,37h258.1c20.5,0,37-16.6,37-37V200.4h-13.2V464.2z" id="XMLID_483_"/><path d="M80.9,110.3c0-15.8,12.8-28.6,28.6-28.6h213.2c-1.4-4.4-0.3-9.3,3-12.7l0.4-0.4H104.8   c-20.5,0-37,16.6-37,37V333h13.2V110.3z" id="XMLID_482_"/><path d="M345.4,394.3L345.4,394.3c0-28.7-23.3-52.1-52.1-52.1H54.7v104.1h238.7   C322.1,446.3,345.4,423,345.4,394.3z M144.6,419.3h-8.3v-21.3h-22.4v21.3h-8.3v-50h8.3v22h22.4v-22h8.3V419.3z M191.1,376h-15.5   v43.3h-8.3V376h-15.2v-6.7h39V376z M250.2,419.3h-8.3v-35.9l-0.2,0l-13.8,36h-5.7l-14-36.6l-0.2,0.1v36.6h-8.3v-50h11l14.4,38.5   h0.2l14.5-38.5h10.6V419.3z M262.9,369.3h8.3v43.3h23.4v6.7h-31.8V369.3z" id="XMLID_1323_"/></g></svg>