<svg width="23" height="23" viewBox="0 0 23 23" fill="none" xmlns="http://www.w3.org/2000/svg">
<g clip-path="url(#clip0_32_59)">
<path d="M19.389 1.661C19.88 1.261 20.255 2.174 19.626 2.233C19.5603 2.23167 19.4965 2.21124 19.4422 2.1742C19.388 2.13717 19.3457 2.08513 19.3206 2.02445C19.2954 1.96377 19.2885 1.89708 19.3007 1.83254C19.3128 1.76799 19.3435 1.70838 19.389 1.661ZM18.174 1.9C18.1693 1.81445 18.132 1.73394 18.0698 1.67503C18.0076 1.61613 17.9252 1.5833 17.8395 1.5833C17.7538 1.5833 17.6714 1.61613 17.6092 1.67503C17.547 1.73394 17.5097 1.81445 17.505 1.9C17.5097 1.98555 17.547 2.06606 17.6092 2.12497C17.6714 2.18387 17.7538 2.2167 17.8395 2.2167C17.9252 2.2167 18.0076 2.18387 18.0698 2.12497C18.132 2.06606 18.1693 1.98555 18.174 1.9ZM15.817 1.663C15.504 1.963 15.99 2.449 16.29 2.137C16.59 1.825 16.126 1.358 15.817 1.661V1.663ZM21.046 7.469C21.537 7.838 20.946 8.435 20.572 7.943L10.309 18.22C10.2688 18.2611 10.2184 18.2908 10.163 18.306L6.252 19.413C6.19465 19.4296 6.13389 19.4306 6.07605 19.4157C6.01821 19.4009 5.96541 19.3708 5.92313 19.3287C5.88086 19.2865 5.85067 19.2338 5.83569 19.176C5.82072 19.1182 5.82152 19.0574 5.838 19L6.938 15.086C6.95348 15.0309 6.98273 14.9807 7.023 14.94L17.291 4.659C17.2454 4.6323 17.2065 4.5955 17.1773 4.55141C17.1481 4.50733 17.1294 4.45715 17.1226 4.40471C17.1158 4.35228 17.1211 4.29898 17.1382 4.24893C17.1552 4.19887 17.1835 4.15339 17.2208 4.11596C17.2582 4.07853 17.3036 4.05017 17.3536 4.03303C17.4036 4.0159 17.4569 4.01046 17.5094 4.01712C17.5618 4.02379 17.612 4.04239 17.6562 4.07149C17.7003 4.10059 17.7372 4.13942 17.764 4.185L18.464 3.485C18.6935 3.25722 19.0037 3.1294 19.327 3.1294C19.6503 3.1294 19.9605 3.25722 20.19 3.485L21.747 5.04C21.8609 5.15294 21.9512 5.2874 22.0127 5.43555C22.0741 5.58371 22.1055 5.7426 22.105 5.903C22.162 6.534 21.423 7.059 21.046 7.467V7.469ZM7.737 15.175L8.667 16.105L18.7 6.063L17.769 5.133L7.737 15.175ZM9.437 17.817L7.437 15.817L6.652 18.607L9.437 17.817ZM20.1 7.468L19.169 6.536L9.14 16.578L10.072 17.51L20.1 7.468ZM21.275 5.512L19.717 3.957C19.159 3.417 18.611 4.348 18.237 4.657L20.572 6.992L21.272 6.292C21.3751 6.18851 21.4332 6.04849 21.4335 5.90241C21.4339 5.75633 21.3776 5.61601 21.275 5.512ZM22.105 0.335V3.461C22.1003 3.54655 22.063 3.62706 22.0008 3.68597C21.9386 3.74487 21.8562 3.7777 21.7705 3.7777C21.6848 3.7777 21.6024 3.74487 21.5402 3.68597C21.478 3.62706 21.4407 3.54655 21.436 3.461V0.67H0.67V3.126H16.411C16.4998 3.126 16.5851 3.16129 16.6479 3.22412C16.7107 3.28694 16.746 3.37215 16.746 3.461C16.746 3.54985 16.7107 3.63506 16.6479 3.69788C16.5851 3.76071 16.4998 3.796 16.411 3.796H0.67V21.435H16.97V17.3C16.9699 17.256 16.9784 17.2123 16.9952 17.1716C17.012 17.1309 17.0367 17.094 17.0678 17.0628C17.099 17.0317 17.1359 17.007 17.1766 16.9902C17.2173 16.9734 17.261 16.9649 17.305 16.965H21.436V8.82C21.436 8.73115 21.4713 8.64594 21.5341 8.58312C21.5969 8.52029 21.6822 8.485 21.771 8.485C21.8598 8.485 21.9451 8.52029 22.0079 8.58312C22.0707 8.64594 22.106 8.73115 22.106 8.82V17.3C22.1058 17.3442 22.0969 17.3878 22.0797 17.4285C22.0626 17.4692 22.0375 17.5061 22.006 17.537L17.54 22.003C17.5092 22.0344 17.4725 22.0594 17.432 22.0765C17.3915 22.0937 17.348 22.1027 17.304 22.103H0.335C0.246498 22.103 0.161591 22.068 0.0988235 22.0056C0.036056 21.9432 0.000528371 21.8585 0 21.77L0 0.335C0 0.246152 0.0352945 0.160944 0.0981192 0.0981192C0.160944 0.0352945 0.246152 0 0.335 0L21.77 0C21.8588 0 21.9441 0.0352945 22.0069 0.0981192C22.0697 0.160944 22.105 0.246152 22.105 0.335ZM17.639 20.961L20.962 17.639H17.639V20.961ZM9.816 10.717C9.90485 10.717 9.99006 10.6817 10.0529 10.6189C10.1157 10.5561 10.151 10.4708 10.151 10.382C10.151 10.2932 10.1157 10.2079 10.0529 10.1451C9.99006 10.0823 9.90485 10.047 9.816 10.047H3.349V6.475H14.049C14.1378 6.475 14.2231 6.43971 14.2859 6.37688C14.3487 6.31406 14.384 6.22885 14.384 6.14C14.384 6.05115 14.3487 5.96594 14.2859 5.90312C14.2231 5.84029 14.1378 5.805 14.049 5.805H3.015C2.97092 5.805 2.92728 5.8137 2.88657 5.8306C2.84586 5.84749 2.80889 5.87226 2.77777 5.90347C2.74664 5.93469 2.72199 5.97173 2.70521 6.01249C2.68844 6.05325 2.67987 6.09692 2.68 6.141V19.091C2.68 19.1798 2.71529 19.2651 2.77812 19.3279C2.84094 19.3907 2.92615 19.426 3.015 19.426H4.821C4.90985 19.426 4.99506 19.3907 5.05788 19.3279C5.12071 19.2651 5.156 19.1798 5.156 19.091C5.156 19.0022 5.12071 18.9169 5.05788 18.8541C4.99506 18.7913 4.90985 18.756 4.821 18.756H3.349V10.717H9.816Z" fill="#212437"/>
</g>
<defs>
<clipPath id="clip0_32_59">
<rect width="22.108" height="22.105" fill="white"/>
</clipPath>
</defs>
</svg>
